pose14
version=1
nRows=4
nColumns=213
inDegrees=yes
endheader
time	platform_rx	platform_ry	platform_rz	platform_ty	pelvis_tilt	pelvis_list	pelvis_rotation	pelvis_tx	pelvis_ty	pelvis_tz	hip_flexion_r	hip_adduction_r	hip_rotation_r	knee_angle_r	knee_angle_r_beta	ankle_angle_r	subtalar_angle_r	mtp_angle_r	hip_flexion_l	hip_adduction_l	hip_rotation_l	knee_angle_l	knee_angle_l_beta	ankle_angle_l	subtalar_angle_l	mtp_angle_l	lumbar_extension	lumbar_bending	lumbar_rotation	arm_flex_r	arm_add_r	arm_rot_r	elbow_flex_r	pro_sup_r	wrist_flex_r	wrist_dev_r	arm_flex_l	arm_add_l	arm_rot_l	elbow_flex_l	pro_sup_l	wrist_flex_l	wrist_dev_l	platform_rx_u	platform_ry_u	platform_rz_u	platform_ty_u	pelvis_tilt_u	pelvis_list_u	pelvis_rotation_u	pelvis_tx_u	pelvis_ty_u	pelvis_tz_u	hip_flexion_r_u	hip_adduction_r_u	hip_rotation_r_u	knee_angle_r_u	knee_angle_r_beta_u	ankle_angle_r_u	subtalar_angle_r_u	mtp_angle_r_u	hip_flexion_l_u	hip_adduction_l_u	hip_rotation_l_u	knee_angle_l_u	knee_angle_l_beta_u	ankle_angle_l_u	subtalar_angle_l_u	mtp_angle_l_u	lumbar_extension_u	lumbar_bending_u	lumbar_rotation_u	arm_flex_r_u	arm_add_r_u	arm_rot_r_u	elbow_flex_r_u	pro_sup_r_u	wrist_flex_r_u	wrist_dev_r_u	arm_flex_l_u	arm_add_l_u	arm_rot_l_u	elbow_flex_l_u	pro_sup_l_u	wrist_flex_l_u	wrist_dev_l_u	addbrev_r.activation	addlong_r.activation	addlong_r.fiber_length	addmagDist_r.activation	addmagIsch_r.activation	addmagIsch_r.fiber_length	addmagMid_r.activation	addmagProx_r.activation	bflh_r.activation	bflh_r.fiber_length	bfsh_r.activation	edl_r.activation	edl_r.fiber_length	ehl_r.activation	ehl_r.fiber_length	fdl_r.activation	fdl_r.fiber_length	fhl_r.activation	fhl_r.fiber_length	gaslat_r.activation	gaslat_r.fiber_length	gasmed_r.activation	gasmed_r.fiber_length	glmax1_r.activation	glmax2_r.activation	glmax3_r.activation	glmed1_r.activation	glmed2_r.activation	glmed3_r.activation	glmin1_r.activation	glmin2_r.activation	glmin3_r.activation	glmin3_r.fiber_length	grac_r.activation	iliacus_r.activation	perbrev_r.activation	perbrev_r.fiber_length	perlong_r.activation	perlong_r.fiber_length	piri_r.activation	piri_r.fiber_length	psoas_r.activation	recfem_r.activation	recfem_r.fiber_length	sart_r.activation	semimem_r.activation	semimem_r.fiber_length	semiten_r.activation	semiten_r.fiber_length	soleus_r.activation	soleus_r.fiber_length	tfl_r.activation	tfl_r.fiber_length	tibant_r.activation	tibant_r.fiber_length	tibpost_r.activation	tibpost_r.fiber_length	vasint_r.activation	vasint_r.fiber_length	vaslat_r.activation	vaslat_r.fiber_length	vasmed_r.activation	vasmed_r.fiber_length	addbrev_l.activation	addlong_l.activation	addlong_l.fiber_length	addmagDist_l.activation	addmagIsch_l.activation	addmagIsch_l.fiber_length	addmagMid_l.activation	addmagProx_l.activation	bflh_l.activation	bflh_l.fiber_length	bfsh_l.activation	edl_l.activation	edl_l.fiber_length	ehl_l.activation	ehl_l.fiber_length	fdl_l.activation	fdl_l.fiber_length	fhl_l.activation	fhl_l.fiber_length	gaslat_l.activation	gaslat_l.fiber_length	gasmed_l.activation	gasmed_l.fiber_length	glmax1_l.activation	glmax2_l.activation	glmax3_l.activation	glmed1_l.activation	glmed2_l.activation	glmed3_l.activation	glmin1_l.activation	glmin2_l.activation	glmin3_l.activation	glmin3_l.fiber_length	grac_l.activation	iliacus_l.activation	perbrev_l.activation	perbrev_l.fiber_length	perlong_l.activation	perlong_l.fiber_length	piri_l.activation	piri_l.fiber_length	psoas_l.activation	recfem_l.activation	recfem_l.fiber_length	sart_l.activation	semimem_l.activation	semimem_l.fiber_length	semiten_l.activation	semiten_l.fiber_length	soleus_l.activation	soleus_l.fiber_length	tfl_l.activation	tfl_l.fiber_length	tibant_l.activation	tibant_l.fiber_length	tibpost_l.activation	tibpost_l.fiber_length	vasint_l.activation	vasint_l.fiber_length	vaslat_l.activation	vaslat_l.fiber_length	vasmed_l.activation	vasmed_l.fiber_length
      0.00648088	     20.00000000	      0.00000000	      0.00000000	      0.25000000	    -22.58316238	     -0.00311175	     -0.00367114	      0.01913916	      0.74081374	      0.00001287	     70.15896692	    -16.50208606	    -10.02587719	     72.56225334	     72.56225334	     21.25512854	     -0.56069571	      0.00000000	     70.15915337	    -16.52187422	    -10.00242403	     72.56471881	     72.56471881	     21.37627693	     -0.00000000	     -0.00000000	     -0.66811688	      0.00283985	      0.00368429	     75.13198095	     -0.00539864	     89.84838735	      0.14020214	      0.12272756	      0.00000000	     -0.00000000	     75.13219299	     -0.00582443	     89.84882685	      0.14056086	      0.12282798	      0.00000000	     -0.00000000	      0.00000000	      0.00000000	      0.00000000	     -0.00000000	    165.67747323	     -0.86516173	     -1.00329737	      0.04328719	      0.25041434	      0.00359920	   -195.61731946	     -6.09329428	     -8.48317565	    -48.62309994	    -48.62309994	   -901.00039759	   -159.91344607	      0.00000000	   -195.55770038	    -11.62887857	     -1.87286795	    -47.95057192	    -47.95057192	   -866.93706527	     -0.00000000	      0.00000000	   -204.86005526	      0.77048469	      1.01722574	     40.34372759	     -1.64538004	     -0.91385212	      4.71028436	     -0.60521751	      0.00000000	      0.00000000	     40.40823944	     -1.77553687	     -0.79275025	      4.81947116	     -0.57467159	      0.00000000	     -0.00000000	      0.01000000	      0.01000000	      0.09532512	      0.01000000	      0.01000000	      0.20108243	      0.01000000	      0.01000000	      0.01000000	      0.11849051	      0.01000000	      0.01000000	      0.05551650	      0.01000000	      0.06354894	      0.01000000	      0.04739719	      0.01000000	      0.05557273	      0.01000000	      0.05975342	      0.01000000	      0.05029825	      0.01000000	      0.01000000	      0.01000000	      0.01000000	      0.01000000	      0.01000000	      0.01000000	      0.01000000	      0.01000000	      0.04516227	      0.01000000	      0.01000000	      0.01000000	      0.05015998	      0.01000000	      0.05670267	      0.01000000	      0.02999159	      0.01000000	      0.01000000	      0.05900783	      0.01000000	      0.01000000	      0.07851850	      0.01000000	      0.22912725	      0.01000000	      0.05872680	      0.01000000	      0.04250000	      0.01000000	      0.05024573	      0.01000000	      0.04168063	      0.01000000	      0.12773903	      0.01000000	      0.12508017	      0.01000000	      0.12296991	      0.01000000	      0.01000000	      0.09534590	      0.01000000	      0.01000000	      0.20108910	      0.01000000	      0.01000000	      0.01000000	      0.11849213	      0.01000000	      0.01000000	      0.05556597	      0.01000000	      0.06350228	      0.01000000	      0.04735781	      0.01000000	      0.05552645	      0.01000000	      0.05975820	      0.01000000	      0.05030554	      0.01000000	      0.01000000	      0.01000000	      0.01000000	      0.01000000	      0.01000000	      0.01000000	      0.01000000	      0.01000000	      0.04514429	      0.01000000	      0.01000000	      0.01000000	      0.05036969	      0.01000000	      0.05685386	      0.01000000	      0.02998149	      0.01000000	      0.01000000	      0.05900612	      0.01000000	      0.01000000	      0.07851871	      0.01000000	      0.22912979	      0.01000000	      0.05874269	      0.01000000	      0.04247601	      0.01000000	      0.05009904	      0.01000000	      0.04162796	      0.01000000	      0.12773999	      0.01000000	      0.12508100	      0.01000000	      0.12297075
      0.00761877	     20.00000000	      0.00000000	      0.00000000	      0.25000000	    -22.37837369	     -0.00415377	     -0.00487172	      0.01919282	      0.74112356	      0.00001720	     69.91656922	    -16.50958172	    -10.03660747	     72.50067728	     72.50067728	     20.15581225	     -0.75443390	      0.00000000	     69.91683158	    -16.53604323	    -10.00517212	     72.50394331	     72.50394331	     20.31805708	     -0.00000000	      0.00000000	     -0.92125963	      0.00376025	      0.00490625	     75.18179539	     -0.00743225	     89.84725351	      0.14602356	      0.12200297	      0.00000000	     -0.00000000	     75.18208686	     -0.00801824	     89.84784215	      0.14651672	      0.12214099	      0.00000000	     -0.00000000	     -0.00000000	      0.00000000	      0.00000000	     -0.00000000	    194.24973990	     -0.96389135	     -1.10328958	      0.05103685	      0.29414742	      0.00401422	   -230.47607192	     -7.07516568	    -10.40890135	    -59.75644579	    -59.75644579	  -1029.53209751	   -180.22463378	      0.00000000	   -230.40198351	    -13.25360697	     -3.00845644	    -59.02529384	    -59.02529384	   -991.46079752	     -0.00000000	      0.00000000	   -240.04153908	      0.84430168	      1.12741314	     47.20281818	     -1.92901804	     -1.07999789	      5.52176504	     -0.66341100	      0.00000000	      0.00000000	     47.27788996	     -2.08033243	     -0.93904278	      5.64878372	     -0.62789567	      0.00000000	     -0.00000000	      0.01000000	      0.01000000	      0.09535320	      0.01000000	      0.01000000	      0.20088188	      0.01000000	      0.01000000	      0.01000000	      0.11835408	      0.01000000	      0.01000000	      0.05610634	      0.01000000	      0.06424700	      0.01000000	      0.04738430	      0.01000000	      0.05548678	      0.01000000	      0.05953197	      0.01000000	      0.05011564	      0.01000000	      0.01000000	      0.01000000	      0.01000000	      0.01000000	      0.01000000	      0.01000000	      0.01000000	      0.01000000	      0.04511173	      0.01000000	      0.01000000	      0.01000000	      0.05001117	      0.01000000	      0.05654180	      0.01000000	      0.02993565	      0.01000000	      0.01000000	      0.05914123	      0.01000000	      0.01000000	      0.07841250	      0.01000000	      0.22896320	      0.01000000	      0.05833044	      0.01000000	      0.04273127	      0.01000000	      0.05104654	      0.01000000	      0.04164864	      0.01000000	      0.12771381	      0.01000000	      0.12505810	      0.01000000	      0.12294777	      0.01000000	      0.01000000	      0.09538225	      0.01000000	      0.01000000	      0.20089170	      0.01000000	      0.01000000	      0.01000000	      0.11835642	      0.01000000	      0.01000000	      0.05617561	      0.01000000	      0.06418051	      0.01000000	      0.04732233	      0.01000000	      0.05541535	      0.01000000	      0.05953656	      0.01000000	      0.05012294	      0.01000000	      0.01000000	      0.01000000	      0.01000000	      0.01000000	      0.01000000	      0.01000000	      0.01000000	      0.01000000	      0.04508709	      0.01000000	      0.01000000	      0.01000000	      0.05030648	      0.01000000	      0.05676459	      0.01000000	      0.02992131	      0.01000000	      0.01000000	      0.05913876	      0.01000000	      0.01000000	      0.07841283	      0.01000000	      0.22896674	      0.01000000	      0.05835282	      0.01000000	      0.04269772	      0.01000000	      0.05084446	      0.01000000	      0.04156477	      0.01000000	      0.12771512	      0.01000000	      0.12505923	      0.01000000	      0.12294892
      0.00861672	     20.00000000	      0.00000000	      0.00000000	      0.25000000	    -22.17204757	     -0.00515386	     -0.00600829	      0.01924717	      0.74143628	      0.00002137	     69.67119789	    -16.51705840	    -10.04790743	     72.43584968	     72.43584968	     19.07584763	     -0.94230382	      0.00000000	     69.67154206	    -16.54993309	    -10.00878297	     72.43986379	     72.43986379	     19.27759972	     -0.00000000	      0.00000000	     -1.17614519	      0.00462910	      0.00607236	     75.23188442	     -0.00948166	     89.84610084	      0.15188963	      0.12132650	      0.00000000	     -0.00000000	     75.23225529	     -0.01022762	     89.84683857	      0.15251711	      0.12150206	      0.00000000	     -0.00000000	      0.00000000	      0.00000000	      0.00000000	     -0.00000000	    219.24742455	     -1.03890123	     -1.17170404	      0.05789544	      0.33260186	      0.00432415	   -261.33013105	     -7.90243875	    -12.26461303	    -70.28762933	    -70.28762933	  -1133.39594311	   -195.94406813	      0.00000000	   -261.23923661	    -14.56513149	     -4.27146153	    -69.52191128	    -69.52191128	  -1092.38561682	      0.00000000	      0.00000000	   -270.76346699	      0.89515693	      1.20716983	     53.17563865	     -2.17846527	     -1.23099493	      6.23501766	     -0.68774676	      0.00000000	     -0.00000000	     53.25958632	     -2.34750418	     -1.07333856	      6.37700877	     -0.64806895	      0.00000000	     -0.00000000	      0.01000000	      0.01000000	      0.09538293	      0.01000000	      0.01000000	      0.20070016	      0.01000000	      0.01000000	      0.01000000	      0.11821379	      0.01000000	      0.01000000	      0.05669521	      0.01000000	      0.06494296	      0.01000000	      0.04736937	      0.01000000	      0.05539300	      0.01000000	      0.05934358	      0.01000000	      0.04995550	      0.01000000	      0.01000000	      0.01000000	      0.01000000	      0.01000000	      0.01000000	      0.01000000	      0.01000000	      0.01000000	      0.04506019	      0.01000000	      0.01000000	      0.01000000	      0.04986237	      0.01000000	      0.05637682	      0.01000000	      0.02987738	      0.01000000	      0.01000000	      0.05927966	      0.01000000	      0.01000000	      0.07830125	      0.01000000	      0.22879697	      0.01000000	      0.05793019	      0.01000000	      0.04296943	      0.01000000	      0.05184533	      0.01000000	      0.04161247	      0.01000000	      0.12768691	      0.01000000	      0.12503449	      0.01000000	      0.12292416	      0.01000000	      0.01000000	      0.09542007	      0.01000000	      0.01000000	      0.20070953	      0.01000000	      0.01000000	      0.01000000	      0.11821684	      0.01000000	      0.01000000	      0.05678436	      0.01000000	      0.06485553	      0.01000000	      0.04728157	      0.01000000	      0.05529633	      0.01000000	      0.05934806	      0.01000000	      0.04996280	      0.01000000	      0.01000000	      0.01000000	      0.01000000	      0.01000000	      0.01000000	      0.01000000	      0.01000000	      0.01000000	      0.04502919	      0.01000000	      0.01000000	      0.01000000	      0.05024093	      0.01000000	      0.05666991	      0.01000000	      0.02985894	      0.01000000	      0.01000000	      0.05927642	      0.01000000	      0.01000000	      0.07830172	      0.01000000	      0.22880150	      0.01000000	      0.05795905	      0.01000000	      0.04292654	      0.01000000	      0.05158837	      0.01000000	      0.04149537	      0.01000000	      0.12768855	      0.01000000	      0.12503592	      0.01000000	      0.12292560
      0.00928933	     20.00000000	      0.00000000	      0.00000000	      0.25000000	    -22.01892342	     -0.00586755	     -0.00680866	      0.01928767	      0.74166873	      0.00002434	     69.48838342	    -16.52255573	    -10.05660488	     72.38606668	     72.38606668	     18.29145047	     -1.07730708	      0.00000000	     69.48879290	    -16.56000796	    -10.01198689	     72.39060043	     72.39060043	     18.52135794	     -0.00000000	      0.00000000	     -1.36520460	      0.00524028	      0.00689951	     75.26899740	     -0.01100357	     89.84523770	      0.15624532	      0.12086303	      0.00000000	     -0.00000000	     75.26942670	     -0.01186713	     89.84608517	      0.15697161	      0.12106620	      0.00000000	     -0.00000000	      0.00000000	      0.00000000	      0.00000000	     -0.00000000	    236.06131827	     -1.08216197	     -1.20656178	      0.06255709	      0.35857469	      0.00450137	   -282.28985817	     -8.44157367	    -13.61027578	    -77.79716687	    -77.79716687	  -1198.31623973	   -205.31892272	      0.00000000	   -282.18648129	    -15.38339158	     -5.27660442	    -77.01943759	    -77.01943759	  -1155.65266839	     -0.00000000	      0.00000000	   -291.39253012	      0.92093135	      1.25090350	     57.17604591	     -2.34696288	     -1.33601202	      6.71671631	     -0.68813174	      0.00000000	     -0.00000000	     57.26582001	     -2.52760302	     -1.16738362	      6.86852725	     -0.64573067	      0.00000000	     -0.00000000	      0.01000000	      0.01000000	      0.09540583	      0.01000000	      0.01000000	      0.20051770	      0.01000000	      0.01000000	      0.01000000	      0.11810852	      0.01000000	      0.01000000	      0.05712747	      0.01000000	      0.06545470	      0.01000000	      0.04735712	      0.01000000	      0.05532052	      0.01000000	      0.05921821	      0.01000000	      0.04984757	      0.01000000	      0.01000000	      0.01000000	      0.01000000	      0.01000000	      0.01000000	      0.01000000	      0.01000000	      0.01000000	      0.04502154	      0.01000000	      0.01000000	      0.01000000	      0.04975310	      0.01000000	      0.05625403	      0.01000000	      0.02983331	      0.01000000	      0.01000000	      0.05938373	      0.01000000	      0.01000000	      0.07821709	      0.01000000	      0.22867334	      0.01000000	      0.05763068	      0.01000000	      0.04314851	      0.01000000	      0.05242737	      0.01000000	      0.04158353	      0.01000000	      0.12766607	      0.01000000	      0.12501617	      0.01000000	      0.12290587	      0.01000000	      0.01000000	      0.09544880	      0.01000000	      0.01000000	      0.20053414	      0.01000000	      0.01000000	      0.01000000	      0.11811212	      0.01000000	      0.01000000	      0.05723176	      0.01000000	      0.06535108	      0.01000000	      0.04724852	      0.01000000	      0.05520549	      0.01000000	      0.05922266	      0.01000000	      0.04985487	      0.01000000	      0.01000000	      0.01000000	      0.01000000	      0.01000000	      0.01000000	      0.01000000	      0.01000000	      0.01000000	      0.04498591	      0.01000000	      0.01000000	      0.01000000	      0.05019162	      0.01000000	      0.05659804	      0.01000000	      0.02981194	      0.01000000	      0.01000000	      0.05937993	      0.01000000	      0.01000000	      0.07821768	      0.01000000	      0.22867861	      0.01000000	      0.05766464	      0.01000000	      0.04309888	      0.01000000	      0.05213216	      0.01000000	      0.04144143	      0.01000000	      0.12766795	      0.01000000	      0.12501781	      0.01000000	      0.12290752
